
<svg viewBox="0 0 250 250" fill="none" xmlns="http://www.w3.org/2000/svg"><path fill-rule="evenodd" clip-rule="evenodd" d="M58.15 250h-8.505l34.272-110.193-65.19-45.458h79.591l27.18-81.849 28.112 81.849h77.807L167.2 140.333 201.017 250h-7.673l-13.568-45.345-20.04-12.792L170.857 250h-7.392l-12.289-63.885-14.441-9.715 5.067 73.6h-7.291l-5.159-78.376-3.854-2.389s-3.773 2.47-3.813 2.955L116.568 250h-8.042l4.883-72.709-14.28 9.472L87.152 250h-8.087l10.857-57.368-18.052 12.144L58.15 250Zm46.74-148.729 20.608-68.49 20.77 68.49h64.501l-51.966 35.905s11.115 35.702 18.62 57.44l-51.154-33.517c-16.836 10.403-33.549 21.575-51.114 33.476l18.376-57.521-52.128-35.783h63.487Z" fill="#9E8858"/></svg>